<svg xmlns="http://www.w3.org/2000/svg" viewBox="0 0 165 105" role="img" aria-label="Apple Pay">
  <rect width="165" height="105" rx="10" fill="#000"/>
  <path d="M44.5 33.1c1.8-2.3 3.1-5.4 2.7-8.6-2.7.1-5.9 1.8-7.8 4.1-1.7 2-3.2 5.2-2.8 8.2 3 .3 6.1-1.5 7.9-3.7zm2.6 4.2c-4.4-.3-8.2 2.5-10.3 2.5-2.1 0-5.3-2.4-8.8-2.3-4.5.1-8.7 2.6-11 6.7-4.7 8.1-1.2 20 3.3 26.6 2.2 3.2 4.8 6.8 8.3 6.7 3.3-.1 4.5-2.1 8.5-2.1 4 0 5.1 2.1 8.5 2.1 3.6-.1 5.8-3.2 8-6.5 2.5-3.7 3.5-7.3 3.5-7.5-.1-.1-6.8-2.6-6.9-10.4-.1-6.5 5.3-9.6 5.5-9.8-3-4.4-7.6-4.9-8.6-5z" fill="#fff"/>
  <text x="72" y="70" font-family="-apple-system, 'SF Pro Display', 'Helvetica Neue', Helvetica, sans-serif" font-size="30" font-weight="200" fill="#fff">Pay</text>
</svg>
