<svg xmlns="http://www.w3.org/2000/svg" viewBox="0 0 200 80" role="img" aria-label="Google Pay">
  <!-- Google G mark using correct brand paths -->
  <g transform="translate(6,4) scale(1.1)">
    <path d="M29.5 14C20.9 14 14 20.9 14 29.5S20.9 45 29.5 45c5.1 0 8.6-1.5 11.3-4.1 2.9-2.9 3.8-7 3.8-10.3 0-1-.1-1.9-.3-2.8H29.5v5h8.9c-.4 2-1.5 3.6-3.1 4.7-1.4 1-3.3 1.5-5.8 1.5-4.5 0-8.3-3-9.7-7.1-.3-1-.5-2.1-.5-3.2s.2-2.2.5-3.2c1.4-4.1 5.2-7.1 9.7-7.1 2.4 0 4.6.8 6.3 2.3l3.7-3.7C37 18.3 33.5 14 29.5 14z" fill="#4285F4"/>
    <path d="M14 29.5c0-1.1.2-2.2.5-3.2L9 22c-1 2.2-1.6 4.6-1.6 7.5s.6 5.4 1.7 7.7l5.5-4.3c-.4-1-.6-2.1-.6-3.4z" fill="#34A853"/>
    <path d="M29.5 45c2.5 0 5-.8 6.9-2.2l-5.4-4.2c-1 .7-2.1 1.2-3.4 1.2-2.5 0-4.6-1.1-5.9-2.8L16 41.4C18.6 43.6 23 45 29.5 45z" fill="#FBBC04"/>
    <path d="M44.8 29.5c0-1-.1-1.9-.3-2.8H29.5v5h8.9c-.2.9-.5 1.7-1 2.5l5.4 4.2c1.9-1.8 2-4.5 2-8.9z" fill="#EA4335"/>
  </g>
  <text x="60" y="53" font-family="'Google Sans', Roboto, Arial, sans-serif" font-size="34" font-weight="500" fill="#3C4043">Pay</text>
</svg>
